<?xml version="1.0" standalone="no"?>
<!DOCTYPE svg PUBLIC "-//W3C//DTD SVG 20010904//EN"
 "http://www.w3.org/TR/2001/REC-SVG-20010904/DTD/svg10.dtd">
<svg version="1.0" xmlns="http://www.w3.org/2000/svg"
 width="550.000000pt" height="550.000000pt" viewBox="0 0 550.000000 550.000000"
 preserveAspectRatio="xMidYMid meet">
<metadata>
Created by potrace 1.14, written by Peter Selinger 2001-2017
</metadata>
<g transform="translate(0.000000,550.000000) scale(0.100000,-0.100000)"
fill="#000000" stroke="none">
<path d="M3446 5492 c-4 -7 -5 -16 -2 -21 3 -5 -1 -11 -9 -14 -9 -4 -12 -1 -9
7 3 7 -2 16 -12 20 -12 4 -15 2 -10 -9 6 -18 -5 -20 -22 -3 -9 9 -16 8 -30 -5
-10 -9 -21 -15 -23 -12 -3 2 -23 7 -44 11 -34 5 -37 4 -26 -9 7 -9 20 -13 29
-10 14 5 15 3 5 -7 -10 -11 -15 -11 -29 1 -19 15 -20 15 -49 -9 -11 -9 -14
-10 -7 -2 18 21 15 35 -5 18 -29 -24 -40 -28 -40 -14 0 8 6 12 14 9 8 -3 13 2
13 13 0 14 -2 16 -9 6 -4 -8 -12 -13 -17 -12 -4 1 -11 -7 -15 -17 -7 -17 -8
-16 -8 2 -1 16 -3 17 -10 6 -5 -8 -18 -12 -30 -8 -12 3 -19 1 -15 -4 7 -12 -7
-11 -26 1 -9 6 -17 5 -22 -3 -12 -18 -9 -34 3 -17 9 13 10 13 6 0 -2 -8 -11
-13 -18 -12 -42 11 -60 11 -90 -2 -19 -7 -41 -11 -49 -9 -9 3 -7 -1 4 -9 18
-14 17 -15 -17 -13 -20 1 -37 -3 -37 -8 0 -6 -3 -7 -6 -4 -4 4 -2 13 4 20 9
10 8 14 -3 14 -8 0 -15 -9 -15 -21 0 -15 -3 -17 -9 -8 -6 11 -14 8 -34 -12
-30 -29 -39 -33 -31 -11 4 8 1 15 -5 15 -6 0 -11 -4 -11 -10 0 -5 -7 -7 -15
-4 -10 4 -15 0 -15 -12 0 -15 -2 -16 -9 -5 -6 9 -11 10 -15 2 -4 -6 -12 -11
-17 -11 -6 0 -7 5 -3 12 5 7 3 8 -5 4 -7 -5 -10 -15 -7 -25 5 -12 2 -11 -9 3
-8 11 -18 17 -21 13 -4 -4 -1 -13 5 -21 10 -12 9 -15 -8 -13 -11 0 -18 4 -15
8 2 4 -3 10 -12 13 -24 9 -31 7 -14 -4 12 -8 12 -10 -5 -11 l-20 0 20 -9 c11
-5 14 -9 7 -9 -7 -1 -22 4 -33 9 -15 8 -19 7 -19 -4 0 -8 -5 -18 -12 -22 -7
-4 -8 -3 -4 4 4 7 3 12 -3 12 -5 0 -15 -8 -20 -17 -7 -12 -10 -14 -11 -4 0 11
-3 11 -17 0 -9 -8 -28 -14 -42 -15 -15 0 -25 -6 -23 -13 1 -7 -9 -11 -31 -9
-41 2 -59 -8 -52 -31 5 -16 -1 -18 -50 -16 -31 1 -50 -2 -44 -6 8 -5 8 -8 0
-13 -6 -4 -11 -4 -11 0 0 4 -9 -1 -20 -11 -12 -11 -20 -13 -20 -6 0 7 -5 9
-12 5 -8 -5 -6 -11 6 -20 11 -8 13 -14 7 -19 -6 -3 -11 -1 -11 4 0 6 -11 10
-25 9 -14 -1 -25 -7 -25 -13 0 -5 -4 -3 -9 5 -6 8 -7 19 -5 25 3 5 -4 0 -15
-13 -11 -13 -18 -30 -14 -40 4 -13 2 -13 -11 3 -10 11 -15 15 -11 8 5 -11 -27
-26 -57 -28 -12 0 -21 -15 -9 -15 7 0 9 -5 6 -10 -5 -8 -11 -8 -19 -1 -17 14
-52 -22 -40 -41 6 -10 4 -10 -9 1 -9 7 -17 9 -17 3 0 -15 -37 -21 -51 -8 -9 8
-10 8 -4 -3 6 -11 4 -13 -8 -8 -10 3 -17 2 -17 -3 0 -5 -9 -12 -20 -15 -24 -8
-27 -25 -3 -25 23 0 12 -9 -18 -14 -13 -2 -29 1 -36 6 -8 7 -10 3 -6 -11 4
-17 1 -19 -17 -16 -16 3 -20 0 -16 -10 3 -8 1 -17 -4 -20 -6 -4 -10 1 -10 10
0 9 -5 13 -10 10 -6 -4 -8 -10 -5 -15 3 -4 -5 -6 -17 -4 -13 2 -17 2 -10 -2
17 -8 15 -27 -3 -20 -8 3 -15 0 -15 -7 0 -8 -4 -6 -10 3 -8 12 -10 12 -10 -5
0 -11 -4 -15 -8 -10 -4 6 -13 11 -21 13 -11 2 -10 -4 4 -25 18 -28 18 -28 -2
-10 -19 16 -33 14 -33 -5 0 -5 6 -6 13 -2 9 5 9 4 0 -6 -10 -11 -15 -11 -28 0
-8 7 -19 10 -23 6 -4 -4 4 -17 18 -28 23 -19 23 -20 4 -14 -15 4 -28 1 -40
-11 -14 -14 -17 -14 -12 -3 4 11 0 16 -13 16 -14 0 -15 -3 -7 -13 6 -8 8 -16
4 -20 -3 -3 -6 -1 -6 5 0 7 -7 12 -15 12 -18 0 -19 -12 -4 -27 9 -9 3 -11 -22
-8 -19 2 -28 1 -21 -2 6 -2 12 -11 12 -19 0 -10 -9 -12 -32 -8 -31 6 -32 5
-14 -8 18 -14 18 -15 -5 -14 -13 1 -26 3 -29 6 -3 3 -15 -5 -27 -17 -12 -13
-18 -23 -12 -23 5 0 4 -6 -3 -14 -7 -7 -18 -12 -23 -9 -6 2 -21 -13 -33 -34
-14 -25 -22 -32 -22 -20 0 10 -5 15 -11 12 -6 -4 -8 -14 -5 -22 3 -8 2 -11 -3
-8 -5 3 -12 1 -16 -5 -3 -5 -12 -10 -18 -10 -7 0 -6 4 3 10 9 6 10 10 3 10
-18 0 -27 -21 -13 -30 8 -5 -4 -15 -34 -30 -25 -12 -46 -24 -46 -26 0 -3 4 -2
10 1 6 3 10 1 10 -4 0 -11 -13 -15 -37 -12 -7 1 -10 -7 -8 -19 3 -17 0 -20
-15 -15 -12 4 -20 2 -20 -4 0 -6 4 -11 10 -11 5 0 2 -9 -7 -20 -9 -11 -19 -17
-21 -15 -3 3 1 11 8 20 10 11 10 15 0 15 -6 0 -14 -9 -17 -20 -3 -11 -9 -17
-14 -14 -5 3 -6 10 -3 16 4 6 2 8 -4 5 -5 -4 -8 -16 -5 -27 3 -12 0 -20 -6
-20 -7 0 -9 -5 -5 -11 4 -7 -1 -7 -16 1 -15 8 -20 8 -16 1 4 -6 1 -11 -7 -11
-10 0 -13 -7 -10 -20 4 -14 0 -20 -11 -20 -10 0 -15 4 -12 8 3 5 -2 9 -10 9
-10 0 -11 -4 -4 -11 13 -13 13 -29 0 -21 -5 3 -10 2 -10 -4 0 -5 6 -12 13 -15
6 -3 -1 -2 -18 1 -28 6 -29 5 -15 -12 14 -17 13 -18 -13 -13 -21 4 -27 2 -23
-8 3 -8 1 -14 -5 -14 -6 0 -8 -10 -4 -22 6 -22 5 -22 -9 -5 -14 18 -14 18 -21
-2 -4 -13 -12 -18 -23 -14 -14 5 -13 3 2 -9 13 -10 15 -17 8 -22 -7 -4 -12 -2
-12 3 0 6 -5 11 -12 11 -6 0 -8 -3 -5 -6 11 -11 -14 -46 -29 -40 -7 3 -13 2
-12 -2 1 -4 -4 -20 -10 -35 -7 -16 -10 -33 -6 -38 3 -5 -10 -8 -30 -5 -37 5
-44 -2 -25 -21 16 -16 -9 -28 -27 -12 -13 11 -15 10 -13 -2 5 -26 -11 -58 -27
-52 -8 3 -14 -1 -14 -11 0 -9 -7 -16 -15 -16 -8 0 -15 -6 -15 -14 0 -8 -3 -16
-7 -19 -5 -2 -2 -2 5 -1 6 2 12 0 12 -5 0 -5 -9 -11 -20 -14 -11 -3 -20 -10
-20 -17 0 -6 5 -8 10 -5 6 3 10 2 10 -4 0 -5 -9 -13 -20 -16 -11 -4 -18 -10
-15 -15 3 -5 1 -11 -5 -15 -5 -3 -10 2 -10 11 0 14 -3 15 -12 6 -7 -7 -12 -24
-13 -40 0 -15 -5 -26 -12 -25 -8 2 -11 -8 -8 -27 3 -26 2 -28 -16 -17 -14 9
-21 9 -31 -2 -11 -11 -9 -12 11 -6 16 5 21 4 17 -4 -4 -6 -14 -11 -22 -11 -8
0 -12 -4 -9 -10 3 -5 1 -18 -5 -27 -11 -17 -11 -17 -6 0 7 21 -1 22 -20 2 -9
-8 -11 -15 -5 -15 6 0 8 -7 5 -15 -4 -8 -10 -15 -16 -15 -5 0 -6 5 -2 12 4 7
3 8 -5 4 -9 -6 -9 -11 0 -22 6 -8 9 -17 5 -21 -3 -3 -6 -1 -6 5 0 6 -6 9 -14
6 -8 -3 -13 -16 -12 -29 2 -16 -1 -22 -11 -18 -8 3 -13 2 -12 -3 2 -16 -13
-54 -22 -54 -5 0 -9 -7 -9 -15 0 -9 -6 -12 -17 -8 -12 5 -15 2 -10 -10 3 -9 2
-17 -4 -17 -6 0 -7 -4 -4 -10 3 -5 -2 -10 -12 -10 -15 0 -16 -2 -3 -10 13 -8
12 -10 -4 -10 -14 0 -16 -3 -7 -13 11 -14 5 -27 -11 -27 -5 0 -6 5 -3 10 3 6
1 10 -4 10 -14 0 -14 -6 -1 -31 7 -13 7 -19 0 -19 -5 0 -10 5 -10 10 0 6 -4
10 -9 10 -5 0 -5 -15 -1 -35 7 -29 6 -34 -5 -25 -15 12 -27 0 -22 -22 2 -7 2
-10 0 -5 -7 11 -20 8 -21 -5 0 -7 -2 -22 -4 -33 -2 -12 2 -19 10 -17 8 1 11
-2 7 -8 -4 -7 -13 -6 -27 1 -18 10 -20 9 -15 -5 4 -9 2 -16 -3 -16 -6 0 -10
-596 -10 -1565 l0 -1565 335 0 335 0 -15 37 c-45 107 -91 449 -80 593 4 52 10
143 13 202 4 58 10 110 15 114 9 9 46 -10 81 -42 36 -34 43 -68 18 -98 -17
-23 -20 -42 -21 -171 0 -80 1 -145 4 -145 16 0 54 25 45 30 -6 4 -12 40 -14
81 -2 41 -7 82 -11 91 -4 11 0 21 14 30 14 9 23 28 27 60 4 31 12 48 20 48 10
0 11 -6 4 -24 -11 -30 12 -58 27 -33 4 8 19 17 33 19 14 1 28 8 32 13 7 9 8 4
8 -32 0 -9 -5 -10 -47 -12 -22 -1 -25 -3 -13 -11 8 -5 28 -10 44 -10 24 0 27
-3 23 -22 -26 -104 -33 -318 -12 -318 6 0 11 15 13 35 8 91 39 -6 67 -206 5
-37 2 -50 -11 -64 -14 -14 -15 -18 -3 -25 10 -7 17 -3 24 13 8 18 10 10 13
-41 2 -36 7 -60 12 -57 6 4 10 0 10 -9 0 -8 -5 -16 -12 -18 -6 -2 -8 -10 -4
-16 5 -9 201 -12 819 -12 l812 1 37 77 c21 42 51 102 67 132 16 30 42 83 58
117 15 35 33 63 40 63 7 0 24 -20 38 -44 29 -49 66 -64 102 -40 12 8 28 14 35
14 18 0 36 -42 32 -75 -2 -20 1 -25 11 -21 8 3 32 -1 52 -8 21 -7 52 -13 68
-12 29 1 30 2 28 46 -2 25 2 52 7 60 9 13 12 13 24 -3 13 -17 15 -17 30 5 l17
23 19 -25 c12 -15 20 -41 20 -64 0 -26 8 -50 25 -72 14 -18 25 -40 25 -49 0
-10 7 -15 16 -13 16 3 41 57 51 109 3 19 11 25 26 24 16 -1 25 -12 33 -41 6
-21 17 -40 25 -42 8 -1 20 -16 26 -32 13 -34 33 -40 33 -11 0 11 5 23 10 26 6
3 10 -3 10 -14 0 -14 6 -21 20 -21 22 0 29 34 9 45 -16 11 -5 28 20 30 20 2
22 -2 19 -34 -2 -20 2 -36 7 -37 30 -2 45 -18 45 -48 1 -70 -29 -66 529 -66
l501 0 0 26 c0 14 -4 23 -10 19 -6 -3 -10 5 -10 19 0 14 -4 28 -10 31 -5 3
-10 30 -9 58 1 47 2 49 11 25 11 -31 20 -35 35 -15 27 33 19 107 -11 107 -16
0 -40 45 -32 59 4 6 13 11 20 11 7 0 19 11 26 25 16 29 30 33 30 7 0 -10 8
-25 18 -33 9 -9 22 -24 28 -34 6 -11 15 -15 22 -11 17 10 15 46 -2 46 -11 0
-14 12 -13 45 1 25 5 45 10 45 4 0 7 9 7 20 0 11 -4 20 -10 20 -5 0 -10 5 -10
10 0 6 7 10 15 10 8 0 17 11 21 25 5 19 14 25 49 31 64 9 125 -3 125 -26 0
-22 49 -59 87 -66 15 -3 30 -7 34 -10 14 -8 -3 -34 -22 -34 -34 0 -20 -27 27
-55 37 -21 48 -24 60 -14 12 10 20 6 47 -23 33 -36 62 -101 53 -117 -4 -5 -3
-17 0 -26 6 -14 8 -14 24 0 15 14 18 14 23 1 4 -9 2 -18 -3 -21 -6 -4 -10 -15
-10 -26 0 -14 7 -19 25 -19 19 0 26 -7 31 -27 4 -16 12 -31 18 -35 6 -4 4 -14
-8 -27 -19 -21 -19 -21 37 -21 l57 0 0 1203 0 1202 -31 -52 c-35 -60 -72 -94
-140 -129 -42 -21 -62 -24 -146 -24 -73 0 -104 4 -121 16 -30 21 -28 29 17 72
40 39 77 127 101 242 25 119 72 164 104 101 24 -45 20 -68 -19 -108 -53 -54
-41 -72 22 -33 22 13 35 31 43 58 10 40 4 98 -11 108 -5 3 -9 12 -9 21 0 20
43 10 78 -18 30 -23 50 -12 33 19 -24 45 -91 68 -152 52 -23 -6 -43 -9 -46 -7
-2 3 1 49 8 102 11 87 15 98 37 106 56 21 134 2 192 -48 l40 -35 0 1187 c0
1008 -2 1186 -14 1182 -9 -4 -12 0 -9 12 2 10 -4 24 -13 32 -15 12 -16 12 -9
0 6 -10 4 -12 -6 -6 -21 14 -60 15 -53 3 4 -7 2 -8 -4 -4 -7 4 -12 13 -12 19
0 16 -40 19 -57 5 -10 -8 -13 -6 -14 8 -1 11 -1 24 0 29 1 6 -6 1 -14 -9 -14
-19 -21 -11 -15 19 1 6 -4 5 -11 -2 -14 -14 -42 -5 -32 11 4 6 -1 5 -10 -3 -9
-7 -17 -10 -17 -5 0 5 -5 2 -10 -6 -8 -13 -10 -12 -10 3 0 9 -4 17 -10 17 -5
0 -19 10 -31 23 -17 17 -21 18 -16 5 4 -10 2 -18 -4 -18 -6 0 -7 -5 -4 -10 4
-6 11 -7 17 -4 7 5 8 2 4 -5 -6 -9 -12 -9 -25 3 -10 9 -25 16 -34 16 -9 0 -19
5 -23 12 -5 8 -1 9 12 4 15 -6 17 -5 6 6 -10 10 -17 10 -32 0 -11 -6 -28 -12
-37 -11 -12 1 -10 4 7 9 14 4 19 8 12 9 -7 1 -10 6 -7 11 10 16 -12 12 -29 -6
-14 -14 -16 -14 -16 0 0 10 -6 13 -17 9 -11 -4 -14 -3 -9 5 4 7 2 12 -3 12 -6
0 -11 -5 -11 -12 0 -6 -9 -3 -20 7 -28 25 -57 30 -38 7 8 -9 8 -13 1 -9 -6 4
-14 1 -16 -5 -4 -9 -6 -7 -6 3 -1 10 -14 20 -33 24 -48 12 -53 11 -50 -3 1 -8
-2 -11 -8 -7 -6 3 -8 10 -5 15 3 5 -7 9 -22 9 -15 -1 -37 1 -48 4 -11 3 -25 6
-32 6 -7 1 -10 8 -6 19 5 16 5 16 -12 0 -16 -15 -21 -15 -57 -1 -21 8 -42 13
-45 9 -3 -3 -12 -1 -20 6 -11 8 -12 7 -7 -6 3 -9 1 -16 -5 -16 -6 0 -11 4 -11
9 0 5 -7 12 -16 15 -8 3 -13 2 -10 -2 8 -13 -67 -7 -93 7 -21 11 -23 11 -18
-1 3 -9 -1 -15 -9 -15 -8 0 -13 5 -11 11 3 7 -9 11 -29 12 -18 0 -31 -3 -28
-8 3 -4 0 -8 -5 -8 -6 0 -11 5 -11 10 0 6 -20 9 -45 8 -25 0 -45 -5 -45 -10 0
-5 -8 -4 -19 1 -10 6 -21 7 -25 4 -4 -4 -17 -8 -29 -10 -14 -2 -18 0 -9 5 7 5
-56 9 -140 9 -129 0 -155 -2 -165 -16 -12 -15 -13 -15 -7 0 4 14 -2 16 -33 15
-21 0 -44 -5 -52 -10 -10 -6 -12 -6 -7 2 4 7 1 12 -9 12 -9 0 -13 -4 -10 -10
3 -5 1 -10 -4 -10 -6 0 -11 5 -11 10 0 13 -33 13 -47 -1 -8 -8 -13 -8 -18 1
-5 8 -11 6 -21 -7 -13 -16 -14 -16 -8 0 3 9 1 17 -5 17 -6 0 -11 -5 -11 -11 0
-8 -5 -8 -15 1 -14 11 -19 7 -16 -12 2 -12 -17 -9 -24 3 -4 6 -13 8 -20 5 -8
-3 -15 0 -18 7 -2 8 -5 8 -11 -1z m-69 -37 c0 -8 -4 -12 -9 -9 -5 3 -6 10 -3
15 9 13 12 11 12 -6z m343 -48 c0 -8 -12 -24 -26 -38 -32 -30 -53 -68 -76
-139 -62 -189 -52 -324 34 -478 17 -29 28 -56 24 -59 -3 -3 -49 -12 -102 -20
-54 -8 -109 -20 -123 -27 -28 -14 -43 -8 -104 40 -38 31 -127 164 -127 190 0
13 -4 26 -10 29 -13 8 -12 179 1 230 6 22 14 56 19 75 10 46 44 111 67 131 50
44 423 102 423 66z m590 -17 c47 -7 89 -17 94 -21 6 -5 -7 -15 -28 -24 -86
-36 -210 -188 -240 -295 -18 -65 -23 -180 -11 -267 7 -58 6 -63 -11 -63 -32
-1 -164 -11 -247 -19 -50 -4 -86 -3 -100 3 -28 14 -114 187 -127 256 -10 55
-3 157 11 166 5 3 9 13 9 22 0 10 13 51 28 91 21 55 42 88 78 124 l49 49 205
-5 c113 -3 243 -10 290 -17z m-1320 -2 c0 -4 -4 -8 -9 -8 -6 0 -12 4 -15 8 -3
5 1 9 9 9 8 0 15 -4 15 -9z m1655 -68 c15 -6 32 -24 40 -45 19 -44 19 -164 1
-207 -8 -18 -20 -49 -27 -68 -17 -45 -153 -183 -200 -203 -44 -18 -199 -57
-228 -57 -28 0 -51 47 -58 124 -4 49 -1 80 18 142 26 91 97 207 139 229 15 8
42 26 59 41 17 14 51 32 74 39 51 16 146 19 182 5z m-1415 -21 c0 -6 -16 -45
-35 -86 -19 -41 -35 -83 -35 -92 0 -10 -5 -33 -11 -51 -9 -24 -9 -53 0 -118
17 -116 61 -210 134 -284 32 -32 57 -59 57 -61 0 -2 -31 -22 -68 -45 -76 -45
-92 -45 -168 -5 -39 21 -164 139 -164 155 0 5 -7 8 -15 8 -9 0 -18 12 -22 30
-3 17 -9 33 -14 36 -5 3 -6 -10 -2 -28 3 -18 10 -34 15 -36 4 -2 8 -10 8 -18
0 -51 99 -157 185 -198 30 -14 55 -30 55 -36 0 -6 -18 -39 -40 -74 -22 -35
-40 -73 -40 -85 0 -28 -21 -27 -51 3 -78 77 -136 153 -152 199 -39 116 -42
261 -4 290 11 8 17 34 20 82 6 101 24 151 79 226 51 70 100 114 158 144 19 10
46 26 59 36 27 21 51 25 51 8z m2130 -29 c0 -5 -2 -10 -4 -10 -3 0 -8 5 -11
10 -3 6 -1 10 4 10 6 0 11 -4 11 -10z m-4048 -642 c-7 -7 -12 -8 -12 -2 0 14
12 26 19 19 2 -3 -1 -11 -7 -17z m2718 -23 c162 -29 158 -28 292 -71 176 -56
328 -145 443 -259 57 -56 117 -173 142 -275 24 -99 24 -430 0 -600 -19 -133
-44 -271 -52 -278 -2 -3 -49 7 -102 22 -54 15 -120 34 -148 41 -91 23 -85 15
-85 134 -1 120 -26 218 -70 268 -14 15 -38 45 -54 66 -40 53 -97 89 -207 134
-91 37 -98 38 -214 38 -100 0 -126 -3 -149 -18 -15 -10 -46 -25 -68 -33 -58
-20 -144 -80 -164 -113 -9 -15 -24 -33 -34 -39 -16 -9 -23 -3 -55 48 -43 69
-125 150 -181 177 -72 37 -178 56 -273 51 -48 -3 -97 -11 -109 -17 -33 -18
-62 2 -62 42 1 71 54 143 139 187 28 14 42 29 47 48 33 155 109 287 201 348
96 65 137 79 293 105 158 25 309 24 470 -6z m-789 -757 c114 -42 188 -107 240
-213 l41 -82 -20 -49 c-28 -69 -34 -96 -41 -203 -6 -95 -6 -95 -36 -103 -17
-5 -85 -6 -155 -1 -178 11 -281 9 -321 -6 -19 -8 -59 -41 -91 -75 l-56 -61
-27 25 c-47 44 -104 142 -116 199 -34 160 -1 321 90 440 25 33 103 95 151 119
93 47 229 51 341 10z m-2728 5 c-3 -7 -9 -10 -14 -7 -14 8 -11 21 5 21 8 0 12
-6 9 -14z m3618 -79 c81 -24 140 -57 201 -113 63 -57 97 -117 128 -220 28 -90
24 -155 -15 -267 -65 -187 -199 -288 -427 -324 -159 -25 -376 73 -453 205 -29
49 -60 154 -69 235 -7 61 18 176 56 257 28 60 116 153 170 180 44 22 102 47
128 56 37 13 229 6 281 -9z m-910 -606 c37 -6 110 -9 164 -6 l97 5 9 -26 c21
-57 56 -115 101 -165 38 -43 70 -65 155 -107 l108 -54 120 0 c113 0 124 2 190
32 125 56 187 100 244 171 30 37 60 82 68 100 7 18 20 35 28 38 16 7 110 -18
175 -46 25 -10 72 -27 105 -37 66 -20 63 -14 47 -108 -5 -27 -19 -108 -31
-180 -12 -71 -26 -152 -31 -180 -5 -27 -16 -90 -25 -139 l-16 -88 22 -24 c32
-34 118 -71 184 -79 62 -8 71 -15 55 -45 -6 -11 -14 -39 -19 -62 -5 -24 -19
-88 -30 -143 -61 -282 -93 -629 -74 -782 5 -40 6 -78 2 -84 -10 -17 -220 -88
-324 -110 -49 -10 -144 -31 -210 -46 -117 -27 -128 -28 -420 -28 -314 0 -394
8 -510 47 -33 11 -72 29 -87 40 l-28 19 0 159 c0 95 4 161 10 165 15 9 12 25
-5 25 -27 0 -91 38 -109 64 -51 78 -22 181 68 241 29 19 58 35 64 35 20 0 23
37 6 86 -9 27 -20 53 -25 59 -5 5 -9 17 -9 27 0 16 10 18 93 18 89 0 95 -1
119 -27 20 -22 28 -42 33 -88 7 -73 -8 -109 -48 -113 -30 -4 -36 -18 -9 -26
153 -45 557 -36 747 18 73 20 200 79 252 115 117 82 106 278 -19 342 -50 26
-92 24 -228 -9 -63 -16 -121 -27 -127 -24 -7 2 -19 16 -26 30 -147 281 -262
383 -587 523 -49 21 -75 24 -240 29 -159 5 -194 9 -250 29 -88 31 -113 51
-144 116 -31 67 -32 88 -6 159 54 143 137 173 371 134z m-2279 -78 c25 -21 50
-52 55 -67 18 -49 33 -122 33 -157 0 -19 9 -62 19 -97 11 -35 22 -80 26 -99
14 -74 56 -198 70 -210 14 -11 26 -3 83 55 96 98 158 143 231 165 148 46 332
2 404 -98 44 -60 57 -101 57 -173 0 -79 -22 -122 -74 -146 -62 -28 -131 -21
-211 22 l-66 36 -61 -55 c-88 -80 -93 -90 -93 -171 1 -81 21 -124 89 -188 37
-35 45 -38 82 -34 100 11 178 136 171 271 l-2 39 65 21 c36 12 71 25 78 29 38
25 120 -28 153 -101 43 -93 36 -299 -14 -416 -26 -60 -108 -131 -216 -185 -92
-47 -157 -107 -166 -153 -12 -65 -58 -97 -250 -177 -106 -44 -182 -56 -343
-55 -190 2 -254 14 -317 63 -60 46 -131 164 -155 260 -11 47 -45 173 -63 237
-48 171 -174 418 -270 529 -203 235 -236 356 -119 435 46 32 129 33 194 1 24
-11 48 -21 52 -21 14 0 112 -78 153 -122 23 -25 53 -64 67 -86 14 -22 30 -43
35 -46 5 -4 24 -31 41 -61 30 -53 60 -72 60 -39 0 9 -8 28 -19 42 -55 80 -90
444 -57 597 16 76 28 100 79 153 39 40 44 42 98 42 51 0 60 -3 101 -40z m1926
-306 c16 -11 22 -25 22 -52 1 -86 72 -114 285 -112 55 1 104 5 110 9 18 14
191 21 227 10 69 -23 145 -65 203 -114 82 -69 92 -80 100 -106 4 -12 22 -43
40 -68 72 -102 124 -255 105 -305 -12 -32 -38 -35 -285 -38 -285 -4 -419 2
-530 23 -55 11 -143 26 -195 34 -86 13 -220 38 -355 66 -27 6 -61 17 -76 25
-15 7 -48 18 -74 24 -26 6 -65 19 -86 30 -21 11 -57 29 -78 40 -45 22 -81 64
-81 92 0 50 149 208 274 292 39 25 74 46 79 46 5 0 23 10 40 23 36 26 202 95
232 96 11 1 31 -6 43 -15z m-1218 -844 c0 -17 -29 -30 -67 -30 -24 0 -43 2
-43 4 0 2 -2 11 -5 19 -5 11 6 14 55 13 33 0 60 -3 60 -6z m2477 -60 c13 -34
28 -37 80 -15 39 16 169 20 192 6 32 -21 -32 -57 -159 -90 -47 -12 -102 -29
-122 -36 -51 -20 -193 -31 -202 -17 -7 12 19 54 64 106 20 23 110 76 130 76 3
0 11 -13 17 -30z m948 -280 c4 -6 -10 -10 -37 -9 -40 1 -41 2 -13 9 43 11 43
11 50 0z m-4420 -352 c31 -24 55 -74 55 -114 0 -19 4 -25 15 -20 8 3 22 9 31
12 11 5 15 1 13 -17 -4 -42 1 -61 14 -56 6 2 12 10 12 17 0 24 20 21 53 -10
18 -16 40 -30 48 -30 10 0 14 -12 14 -44 0 -58 -14 -69 -70 -52 l-45 14 29 7
29 8 -21 18 c-12 9 -22 25 -22 34 0 11 -5 15 -14 12 -8 -3 -24 5 -37 19 -39
41 -53 32 -46 -31 5 -52 4 -55 -17 -55 -25 0 -66 41 -84 83 -7 15 -12 70 -12
121 0 115 5 123 55 84z m4334 -63 c16 -14 30 -33 29 -43 0 -9 5 -30 10 -47 6
-16 16 -50 23 -75 6 -25 15 -56 20 -70 5 -14 18 -60 28 -102 20 -84 22 -79
-31 -82 -9 -1 -20 -4 -24 -9 -4 -4 -16 -7 -26 -7 -10 0 -51 -15 -91 -34 -119
-55 -297 -249 -297 -322 0 -34 -11 -40 -190 -95 -25 -7 -80 -28 -123 -46 -89
-36 -272 -78 -428 -96 -145 -17 -188 -6 -189 48 0 11 -14 67 -31 125 -17 58
-42 146 -55 195 -32 114 -39 138 -59 205 -9 30 -19 66 -22 80 -3 14 -14 36
-23 50 -21 30 -52 101 -46 107 7 7 40 6 106 -6 105 -18 460 -25 590 -11 63 6
160 15 215 19 55 5 118 13 140 19 36 10 92 24 207 53 21 5 63 20 93 34 31 13
59 24 63 23 4 -1 22 6 41 16 34 18 36 31 16 79 -11 26 18 22 54 -8z m-1729
-53 c0 -54 17 -85 61 -108 17 -8 29 -21 27 -28 -2 -7 -45 -50 -96 -95 -51 -46
-99 -96 -108 -112 -8 -16 -23 -33 -35 -39 -35 -19 -209 -262 -232 -325 -7 -20
-35 17 -42 54 -12 69 43 239 103 321 21 27 57 79 82 116 25 36 59 82 76 102
18 21 55 65 83 100 64 77 81 80 81 14z m-1357 -85 c19 -7 22 -22 7 -32 -6 -4
-23 7 -39 24 -16 17 -24 32 -17 34 6 3 16 -1 21 -7 6 -7 18 -15 28 -19z
m-1133 -42 c0 -8 -4 -15 -9 -15 -5 0 -11 7 -15 15 -3 9 0 15 9 15 8 0 15 -7
15 -15z m2240 -25 c0 -21 -27 -40 -59 -40 -12 0 -21 -4 -21 -10 0 -5 -22 -10
-49 -10 -52 0 -61 -10 -61 -67 0 -27 2 -28 40 -8 34 18 34 18 19 -23 -13 -38
-40 -48 -79 -28 -28 13 -30 13 -30 -4 0 -19 -32 -36 -49 -26 -5 3 -8 -2 -7
-12 1 -13 -8 -18 -44 -20 -30 -2 -48 -10 -58 -23 -7 -11 -18 -17 -23 -14 -14
9 -11 35 5 35 7 0 16 9 19 20 4 15 14 20 36 20 38 0 40 15 4 34 -24 12 -26 15
-10 21 9 4 24 2 32 -5 8 -7 22 -10 30 -6 20 7 19 45 -1 53 -20 7 -89 -15 -119
-39 -13 -10 -30 -18 -38 -18 -8 0 -20 -6 -26 -14 -9 -11 -6 -15 14 -20 36 -9
33 -36 -5 -36 -23 0 -30 4 -30 20 0 21 -15 27 -25 10 -3 -5 -23 -17 -43 -27
-20 -9 -57 -33 -82 -52 l-45 -34 35 7 c19 3 48 16 63 27 20 14 32 18 39 11 15
-15 3 -29 -32 -35 -18 -4 -30 -13 -30 -22 0 -24 -27 -29 -56 -11 -25 17 -26
17 -94 -44 -60 -53 -72 -60 -90 -50 -11 6 -20 15 -20 20 0 4 -3 15 -6 24 -7
19 101 136 155 168 20 12 47 31 61 44 36 33 305 160 370 174 30 7 69 16 85 21
17 4 74 8 128 8 90 1 97 0 97 -19z m434 -80 c76 -188 156 -465 138 -480 -21
-19 -107 -35 -177 -34 -105 0 -226 32 -255 65 -3 3 -20 12 -37 20 -24 10 -38
27 -53 62 -12 26 -18 56 -15 66 20 64 320 365 358 359 13 -2 26 -22 41 -58z
m-1421 -195 c-7 -21 -13 -19 -13 6 0 11 4 18 10 14 5 -3 7 -12 3 -20z m490 6
c4 -4 9 -21 10 -37 2 -26 -1 -29 -30 -29 -39 0 -45 19 -8 23 l26 3 -32 31 -32
31 29 -7 c16 -4 33 -11 37 -15z m-83 -104 c-39 -35 -77 -57 -101 -57 -18 0
-20 -4 -14 -27 5 -22 4 -25 -8 -15 -12 10 -16 7 -20 -18 -9 -41 -35 -41 -29 0
4 28 2 30 -26 30 -19 0 -35 -7 -41 -17 -9 -16 -10 -16 -11 -1 0 20 26 48 46
48 9 0 24 -5 35 -10 15 -9 19 -7 19 5 0 9 20 24 47 36 26 11 50 24 53 28 5 9
33 18 60 20 10 1 6 -7 -10 -22z m2383 -45 c3 -4 3 -19 0 -35 -4 -18 -12 -27
-24 -27 -21 0 -26 -29 -9 -46 6 -6 8 -18 4 -27 -7 -18 -24 -23 -24 -8 0 5 -9
13 -20 16 -14 4 -20 15 -20 36 0 16 4 29 9 29 5 0 18 16 30 35 19 33 44 45 54
27z m-3926 -74 c-3 -8 -6 -5 -6 6 -1 11 2 17 5 13 3 -3 4 -12 1 -19z m1343
-18 c0 -5 -4 -10 -10 -10 -5 0 -10 5 -10 10 0 6 5 10 10 10 6 0 10 -4 10 -10z
m2960 -70 c0 -5 -7 -10 -15 -10 -8 0 -15 5 -15 10 0 6 7 10 15 10 8 0 15 -4
15 -10z m-2135 -43 c0 -26 -20 -25 -23 2 -3 16 1 22 10 19 7 -3 13 -12 13 -21z
m22 -114 c-3 -10 -5 -2 -5 17 0 19 2 27 5 18 2 -10 2 -26 0 -35z m427 6 c-3
-5 -10 -7 -15 -3 -5 3 -7 10 -3 15 3 5 10 7 15 3 5 -3 7 -10 3 -15z"/>
<path d="M3013 3485 c-46 -32 -18 -105 40 -105 26 0 67 40 67 65 0 37 -73 64
-107 40z"/>
<path d="M4040 3358 c-28 -30 -27 -82 2 -102 32 -22 61 -20 86 7 28 29 28 67
2 95 -26 28 -64 28 -90 0z"/>
<path d="M1180 1888 c0 -7 12 -26 26 -43 61 -70 87 -162 88 -304 1 -104 7
-120 36 -101 11 7 16 34 18 108 3 89 1 106 -23 168 -30 74 -85 158 -115 174
-24 13 -30 13 -30 -2z"/>
<path d="M2706 2635 c-55 -27 -89 -53 -162 -122 -65 -61 -92 -106 -76 -126 9
-11 30 4 109 81 54 52 107 98 118 103 49 21 100 57 103 72 5 24 -33 21 -92 -8z"/>
<path d="M2867 2570 c-19 -16 -39 -30 -44 -30 -11 0 -90 -83 -127 -133 -26
-35 -29 -67 -8 -67 9 0 97 91 103 107 2 5 34 30 70 55 65 46 85 70 73 89 -10
16 -33 9 -67 -21z"/>
<path d="M3063 2575 c-40 -28 -137 -156 -168 -223 -27 -56 -30 -91 -9 -99 10
-3 19 -2 21 3 2 5 18 33 36 63 17 30 43 73 57 96 14 23 42 64 63 92 20 28 37
55 37 61 0 19 -16 22 -37 7z"/>
<path d="M3436 2551 c-10 -16 3 -35 43 -64 52 -36 158 -178 219 -293 7 -13 17
-22 23 -19 19 13 8 68 -34 155 -26 56 -147 183 -199 211 -43 22 -45 22 -52 10z"/>
<path d="M3320 2523 c0 -4 25 -57 55 -119 30 -62 55 -120 55 -129 0 -26 32
-115 41 -115 32 0 18 122 -26 217 -14 30 -25 61 -25 68 0 20 -65 85 -84 85 -9
0 -16 -3 -16 -7z"/>
<path d="M2755 886 c-18 -13 -17 -14 18 -13 39 1 48 11 21 21 -20 8 -17 8 -39
-8z"/>
<path d="M4445 5490 c3 -5 8 -10 11 -10 2 0 4 5 4 10 0 6 -5 10 -11 10 -5 0
-7 -4 -4 -10z"/>
<path d="M5105 5360 c3 -5 8 -10 11 -10 2 0 4 5 4 10 0 6 -5 10 -11 10 -5 0
-7 -4 -4 -10z"/>
<path d="M2250 5179 c0 -11 27 -12 34 -1 2 4 -4 9 -15 9 -10 1 -19 -2 -19 -8z"/>
<path d="M1856 5005 c-3 -8 -1 -15 4 -15 6 0 10 7 10 15 0 8 -2 15 -4 15 -2 0
-6 -7 -10 -15z"/>
<path d="M1090 4479 c0 -5 5 -7 10 -4 6 3 10 8 10 11 0 2 -4 4 -10 4 -5 0 -10
-5 -10 -11z"/>
<path d="M617 4036 c-3 -8 -2 -18 3 -21 13 -8 20 9 11 24 -6 10 -10 9 -14 -3z"/>
<path d="M750 700 c0 -5 5 -10 10 -10 6 0 10 5 10 10 0 6 -4 10 -10 10 -5 0
-10 -4 -10 -10z"/>
<path d="M840 680 c0 -5 5 -10 10 -10 6 0 10 5 10 10 0 6 -4 10 -10 10 -5 0
-10 -4 -10 -10z"/>
<path d="M791 453 c-1 -24 4 -43 9 -43 12 0 12 24 0 60 -7 21 -8 19 -9 -17z"/>
<path d="M687 463 c-11 -10 -8 -106 3 -123 7 -10 10 7 10 58 0 72 -1 78 -13
65z"/>
<path d="M880 342 c0 -22 4 -32 12 -30 18 6 20 22 3 43 -14 19 -14 18 -15 -13z"/>
<path d="M5020 355 c0 -9 5 -15 11 -13 6 2 11 8 11 13 0 5 -5 11 -11 13 -6 2
-11 -4 -11 -13z"/>
<path d="M4730 320 c0 -11 5 -20 10 -20 6 0 10 9 10 20 0 11 -4 20 -10 20 -5
0 -10 -9 -10 -20z"/>
<path d="M691 264 c0 -11 3 -14 6 -6 3 7 2 16 -1 19 -3 4 -6 -2 -5 -13z"/>
<path d="M5235 250 c-8 -24 1 -40 21 -40 16 0 17 5 8 38 -8 27 -21 28 -29 2z"/>
<path d="M746 225 c-4 -14 -11 -25 -16 -25 -13 0 -13 -147 0 -155 6 -3 10 -15
10 -26 0 -10 4 -19 8 -19 5 0 6 39 4 86 -3 56 -1 89 7 97 13 13 15 67 2 67 -5
0 -12 -11 -15 -25z"/>
<path d="M2834 204 c-5 -21 -11 -24 -30 -20 -22 6 -29 -2 -25 -27 1 -4 -5 -15
-13 -23 -9 -8 -12 -22 -9 -30 4 -11 9 -12 16 -5 6 6 19 11 29 11 13 0 20 10
25 30 3 17 14 35 24 41 22 12 25 49 4 49 -8 0 -18 -12 -21 -26z"/>
<path d="M843 180 c0 -25 2 -35 4 -22 2 12 2 32 0 45 -2 12 -4 2 -4 -23z"/>
<path d="M2882 150 c-18 -29 -15 -38 4 -12 9 13 14 25 12 27 -2 2 -9 -5 -16
-15z"/>
<path d="M2741 74 c0 -11 3 -14 6 -6 3 7 2 16 -1 19 -3 4 -6 -2 -5 -13z"/>
<path d="M778 74 c-5 -4 -8 -16 -8 -28 0 -14 3 -17 11 -9 6 6 9 19 7 28 -1 9
-6 13 -10 9z"/>
<path d="M2680 8 c0 -5 27 -8 60 -8 33 0 60 4 60 9 0 4 -27 8 -60 7 -33 -1
-60 -4 -60 -8z"/>
</g>
</svg>
